<svg width="87" height="86" viewBox="0 0 87 86" fill="none" xmlns="http://www.w3.org/2000/svg">
<path d="M43.2993 0.000117056C31.9298 0.0531752 21.0441 4.60693 13.0234 12.6652C5.00266 20.7235 0.499876 31.6304 0.5 43.0001C0.5 54.4044 5.03034 65.3416 13.0944 73.4056C21.1585 81.4697 32.0957 86 43.5 86C54.9043 86 65.8415 81.4697 73.9056 73.4056C81.9697 65.3416 86.5 54.4044 86.5 43.0001C86.5 31.5958 81.9697 20.6586 73.9056 12.5945C65.8415 4.53045 54.9043 0.000117056 43.5 0.000117056C43.4331 -3.90185e-05 43.3662 -3.90185e-05 43.2993 0.000117056ZM61.0798 25.8861C61.4382 25.8789 62.2301 25.9685 62.7461 26.3877C63.089 26.6855 63.3076 27.1011 63.3588 27.5523C63.4162 27.8856 63.4878 28.6488 63.4305 29.2437C62.7855 36.0448 59.9833 52.5425 58.5572 60.157C57.9552 63.382 56.7691 64.4606 55.6188 64.5645C53.1248 64.7974 51.2293 62.9162 48.8105 61.3324C45.0265 58.8491 42.8872 57.3047 39.2143 54.8824C34.9681 52.0874 37.7201 50.5465 40.1388 48.0382C40.7731 47.3789 51.7739 37.3706 51.9889 36.4641C52.014 36.3494 52.0391 35.9266 51.7882 35.7044C51.5374 35.4822 51.1647 35.5575 50.896 35.6184C50.5162 35.7044 44.4711 39.7034 32.7608 47.6046C31.0408 48.7871 29.4892 49.3605 28.0953 49.3246C26.5616 49.296 23.6089 48.461 21.4123 47.748C18.7177 46.8701 16.5784 46.4078 16.7647 44.9207C16.8615 44.1467 17.9293 43.3548 19.9647 42.545C32.4992 37.084 40.8555 33.4827 45.0408 31.7448C56.9805 26.7783 59.4637 25.9147 61.0798 25.8861Z" fill="#A3A3A3"/>
</svg>
